<?xml version="1.0" encoding="UTF-8" standalone="no"?>
<!-- Created with Inkscape (http://www.inkscape.org/) -->

<svg
   version="1.1"
   id="svg1"
   width="831.81519"
   height="888.39917"
   viewBox="0 0 831.81519 888.39917"
   sodipodi:docname="logo_vasemmisto_vanstern_white.svg"
   inkscape:version="1.3.1 (9b9bdc1480, 2023-11-25, custom)"
   xmlns:inkscape="http://www.inkscape.org/namespaces/inkscape"
   xmlns:sodipodi="http://sodipodi.sourceforge.net/DTD/sodipodi-0.dtd"
   xmlns="http://www.w3.org/2000/svg"
   xmlns:svg="http://www.w3.org/2000/svg">
  <defs
     id="defs1">
    <clipPath
       clipPathUnits="userSpaceOnUse"
       id="clipPath3">
      <path
         d="M 0,685 H 680 V 0 H 0 Z"
         transform="translate(-612.05051,-129.1016)"
         id="path3" />
    </clipPath>
    <linearGradient
       x1="0"
       y1="0"
       x2="1"
       y2="0"
       gradientUnits="userSpaceOnUse"
       gradientTransform="matrix(0,455.90582,455.90582,0,317.82629,219.09418)"
       spreadMethod="pad"
       id="linearGradient5">
      <stop
         style="stop-opacity:1;stop-color:#ec086d"
         offset="0"
         id="stop3" />
      <stop
         style="stop-opacity:1;stop-color:#ec086d"
         offset="0.26303688"
         id="stop4" />
      <stop
         style="stop-opacity:1;stop-color:#f466ba"
         offset="1"
         id="stop5" />
    </linearGradient>
    <clipPath
       clipPathUnits="userSpaceOnUse"
       id="clipPath3-7">
      <path
         d="M 0,685 H 680 V 0 H 0 Z"
         transform="translate(-612.05051,-129.1016)"
         id="path3-5" />
    </clipPath>
  </defs>
  <sodipodi:namedview
     id="namedview1"
     pagecolor="#ffffff"
     bordercolor="#000000"
     borderopacity="0.25"
     inkscape:showpageshadow="2"
     inkscape:pageopacity="0.0"
     inkscape:pagecheckerboard="true"
     inkscape:deskcolor="#d1d1d1"
     inkscape:zoom="0.68318992"
     inkscape:cx="292.0125"
     inkscape:cy="414.96514"
     inkscape:window-width="1920"
     inkscape:window-height="1131"
     inkscape:window-x="0"
     inkscape:window-y="0"
     inkscape:window-maximized="1"
     inkscape:current-layer="g1" />
  <g
     id="g1"
     inkscape:groupmode="layer"
     inkscape:label="1"
     transform="translate(-48.107866,-12.193338)">
    <g
       id="group-MC0" />
    <g
       id="group-MC1" />
    <g
       id="group-MC2" />
    <g
       id="group-MC3" />
    <g
       id="group-MC4" />
    <g
       id="group-MC6" />
    <g
       id="group-MC7" />
    <g
       id="group-MC5"
       transform="translate(40.247486,-1.1400144)">
      <path
         id="path2"
         d="m 0,0 c 0,7.301 -4.301,12.501 -11.501,12.501 -7.301,0 -11.501,-5.2 -11.501,-12.501 0,-7.301 4.2,-12.501 11.501,-12.501 C -4.301,-12.501 0,-7.301 0,0 m -38.303,0 c 0,14.701 10.201,25.401 26.802,25.401 C 5,25.401 15.201,14.701 15.201,0 15.201,-14.701 5,-25.401 -11.501,-25.401 c -16.601,0 -26.802,10.7 -26.802,25.401 M -43.8,-11.9 v -12.202 c -2.2,-0.4 -5.801,-0.799 -10.201,-0.799 -7.2,0 -17.101,1.599 -17.101,17.701 v 19.201 h -7.6 v 12.101 h 7.6 v 14.3 h 15.301 v -14.3 H -44.9 V 12.001 H -55.801 V -4 c 0,-7.101 2.901,-8.201 6.7,-8.201 1.701,0 3.901,0.1 5.301,0.301 m -83.803,2.299 h 15.202 c 0,-3.299 3.2,-5.6 7.9,-5.6 3.301,0 5.601,1.6 5.601,4.4 0,2.2 -1.1,3.5 -5.201,4.5 l -10.1,2.5 c -7.7,1.901 -12.101,6.801 -12.101,14.102 0,9.1 8.2,15.1 20.601,15.1 13.601,0 21.502,-5.299 21.502,-14.9 h -15.102 c 0,3.399 -2.5,5.2 -6.599,5.2 -3.301,0 -5.501,-1.6 -5.501,-3.9 0,-2.2 1.4,-3.601 5.3,-4.601 L -95.9,4.4 c 7.6,-2 12.201,-6.6 12.201,-13.901 0,-10 -8.301,-15.9 -21.102,-15.9 -13.701,0 -22.802,6.4 -22.802,15.8 m -24.898,33.703 h 15.2 v -48.203 h -15.2 z m -1.801,13.6 c 0,5.2 3.901,9.401 9.401,9.401 5.501,0 9.501,-4.201 9.501,-9.401 0,-5.1 -4,-9.301 -9.501,-9.301 -5.5,0 -9.401,4.201 -9.401,9.301 m -87.498,-13.6 h 15.301 v -7.001 c 2.1,4.8 7.101,8.3 13.801,8.3 8.6,0 13.001,-3.799 15.1,-8.9 2.601,5.2 8.301,8.9 15.402,8.9 13.801,0 17.1,-9.501 17.1,-19.601 v -29.902 h -15.4 V 3 c 0,6.7 -2.501,9.501 -7.201,9.501 -4.8,0 -8.101,-2.7 -8.101,-11.801 v -24.802 h -15.4 V 3.1 c 0,6.701 -2.401,9.401 -7.101,9.401 -4.9,0 -8.2,-2.7 -8.2,-11.801 V -24.102 H -241.8 Z m -89.3,0 h 15.302 v -7.001 c 2.101,4.8 7.101,8.3 13.801,8.3 8.601,0 13.001,-3.799 15.101,-8.9 2.6,5.2 8.3,8.9 15.401,8.9 13.801,0 17.1,-9.501 17.1,-19.601 v -29.902 h -15.4 V 3 c 0,6.7 -2.501,9.501 -7.201,9.501 -4.8,0 -8.101,-2.7 -8.101,-11.801 v -24.802 h -15.4 V 3.1 c 0,6.701 -2.4,9.401 -7.101,9.401 -4.9,0 -8.2,-2.7 -8.2,-11.801 V -24.102 H -331.1 Z M -355.496,5.3 c -0.101,6.4 -3.701,9.801 -10.201,9.801 -6.601,0 -10.601,-3.901 -10.701,-9.801 z m 14.7,-9.5 h -35.602 c 0.3,-6.301 4.5,-9.701 11.3,-9.701 4.702,0 7.702,1.3 9.001,4.3 h 15.001 c -1.5,-9.501 -11.201,-15.8 -24.002,-15.8 -16.4,0 -26.502,9.299 -26.502,25.401 0,15.801 10.301,25.401 26.002,25.401 15.001,0 25.202,-9.3 25.202,-22.901 0,-2.5 -0.1,-4 -0.4,-6.7 m -101.201,-5.401 h 15.2 c 0,-3.299 3.201,-5.6 7.901,-5.6 3.3,0 5.601,1.6 5.601,4.4 0,2.2 -1.101,3.5 -5.201,4.5 l -10.1,2.5 c -7.701,1.901 -12.101,6.801 -12.101,14.102 0,9.1 8.201,15.1 20.601,15.1 13.601,0 21.501,-5.299 21.501,-14.9 h -15.1 c 0,3.399 -2.5,5.2 -6.601,5.2 -3.3,0 -5.501,-1.6 -5.501,-3.9 0,-2.2 1.401,-3.601 5.301,-4.601 l 10.201,-2.8 c 7.6,-2 12.2,-6.6 12.2,-13.901 0,-10 -8.3,-15.9 -21.1,-15.9 -13.701,0 -22.802,6.4 -22.802,15.8 M -466.295,0 c 0,6.9 -3.899,12.601 -11.5,12.601 -7.1,0 -11.501,-5.3 -11.501,-12.601 0,-7.301 4.401,-12.701 11.501,-12.701 7.601,0 11.5,5.7 11.5,12.701 m -38.601,0 c 0,14.4 8.9,25.401 22.901,25.401 7.001,0 12.501,-3.299 15.1,-8.2 v 6.901 h 15.202 v -48.204 h -15.202 v 6.801 c -2.599,-4.801 -8.599,-8.1 -15.3,-8.1 -14.401,0 -22.701,10.9 -22.701,25.401 m -57.202,24.102 h 16.901 l 10.801,-30.302 10.8,30.302 h 17.001 l -20.901,-48.204 h -13.801 z m 448.897,-95 H -97.9 v -7.001 c 2.799,5.4 8.299,8.3 15.6,8.3 11.701,0 17.602,-6.6 17.602,-19.701 v -29.802 H -80.1 V -94.3 c 0,8.101 -2.299,11.801 -8.5,11.801 -6.1,0 -9.3,-4.001 -9.3,-11.401 v -25.202 h -15.301 z m -41.299,0 h 15.301 v -10.101 c 1.7,7.2 7.4,10.9 13.301,10.9 1.799,0 2.799,-0.099 4,-0.4 v -14.2 c -1.8,0.2 -2.701,0.3 -4.601,0.3 -8.3,0 -12.7,-5.401 -12.7,-16.101 v -18.602 H -154.5 Z M -178.897,-89.7 c -0.101,6.4 -3.701,9.801 -10.202,9.801 -6.599,0 -10.6,-3.901 -10.7,-9.801 z m 14.701,-9.5 h -35.603 c 0.3,-6.301 4.5,-9.701 11.301,-9.701 4.7,0 7.7,1.3 9,4.3 h 15.001 c -1.5,-9.501 -11.2,-15.8 -24.001,-15.8 -16.401,0 -26.502,9.299 -26.502,25.401 0,15.801 10.301,25.401 26.002,25.401 15.001,0 25.201,-9.3 25.201,-22.901 0,-2.5 -0.099,-4 -0.399,-6.7 m -56.301,-7.7 v -12.202 c -2.2,-0.4 -5.801,-0.799 -10.201,-0.799 -7.2,0 -17.101,1.599 -17.101,17.701 v 19.201 h -7.6 v 12.101 h 7.6 v 14.3 h 15.301 v -14.3 h 10.9 v -12.101 h -10.9 V -99 c 0,-7.101 2.9,-8.201 6.7,-8.201 1.7,0 3.901,0.1 5.301,0.301 m -83.803,2.299 h 15.201 c 0,-3.299 3.201,-5.6 7.901,-5.6 3.3,0 5.599,1.6 5.599,4.4 0,2.2 -1.099,3.5 -5.2,4.5 l -10.1,2.5 C -298.6,-96.9 -303,-92 -303,-84.699 c 0,9.1 8.201,15.1 20.602,15.1 13.6,0 21.501,-5.299 21.501,-14.9 h -15.101 c 0,3.399 -2.5,5.2 -6.601,5.2 -3.299,0 -5.5,-1.6 -5.5,-3.9 0,-2.2 1.4,-3.601 5.3,-4.601 l 10.201,-2.8 c 7.601,-2 12.201,-6.6 12.201,-13.901 0,-10 -8.3,-15.9 -21.101,-15.9 -13.701,0 -22.802,6.4 -22.802,15.8 m -57.699,33.703 h 15.301 v -7.001 c 2.8,5.4 8.301,8.3 15.6,8.3 11.702,0 17.602,-6.6 17.602,-19.701 v -29.802 h -15.4 V -94.3 c 0,8.101 -2.301,11.801 -8.501,11.801 -6.101,0 -9.301,-4.001 -9.301,-11.401 v -25.202 h -15.301 z m -37.497,14.001 c 0,4.7 3.799,8.5 8.6,8.5 4.9,0 8.701,-3.8 8.701,-8.5 0,-4.701 -3.801,-8.501 -8.701,-8.501 -4.801,0 -8.6,3.8 -8.6,8.501 M -389.797,-95 c 0,6.9 -3.899,12.601 -11.5,12.601 -7.1,0 -11.501,-5.3 -11.501,-12.601 0,-7.301 4.401,-12.701 11.501,-12.701 7.601,0 11.5,5.7 11.5,12.701 m -31.601,38.103 c 0,4.7 3.701,8.5 8.6,8.5 4.901,0 8.601,-3.8 8.601,-8.5 0,-4.701 -3.7,-8.501 -8.601,-8.501 -4.899,0 -8.6,3.8 -8.6,8.501 m -7,-38.103 c 0,14.4 8.9,25.401 22.901,25.401 7.001,0 12.501,-3.299 15.101,-8.2 v 6.901 h 15.201 v -48.204 h -15.201 v 6.801 c -2.6,-4.801 -8.6,-8.1 -15.301,-8.1 -14.401,0 -22.701,10.9 -22.701,25.401 m -57.202,24.102 h 16.901 l 10.801,-30.302 10.8,30.302 h 17.001 l -20.901,-48.204 h -13.801 z"
         style="fill:#f9f9f9;fill-opacity:1;fill-rule:nonzero;stroke:none"
         transform="matrix(1.3333333,0,0,-1.3333333,816.06733,741.19787)"
         clip-path="url(#clipPath3-7)" />
      <path
         id="path5"
         d="m 11.896,675 c -2.265,0 -4.338,-1.275 -5.358,-3.3 v 0 c -1.02,-2.021 -0.814,-4.445 0.533,-6.267 v 0 C 52.052,604.575 297.598,272.367 335.174,221.528 v 0 c 1.133,-1.53 2.923,-2.434 4.826,-2.434 v 0 c 1.903,0 3.694,0.904 4.825,2.434 v 0 c 34.425,46.575 242.588,328.205 283.758,383.906 v 0 c 1.347,1.82 1.55,4.245 0.529,6.266 v 0 c -1.021,2.025 -3.091,3.3 -5.354,3.3 v 0 h -22.475 c -14.171,0 -28.321,1.021 -42.346,3.059 v 0 c -29.416,4.274 -58.8,-7.955 -76.5,-31.834 v 0 C 455.7,550.154 418.058,499.366 404.827,481.513 v 0 c -1.133,-1.529 -2.922,-2.429 -4.825,-2.428 v 0 c -1.901,0.002 -3.69,0.905 -4.821,2.434 v 0 c -16.276,22.021 -70.25,95.048 -107.032,144.806 v 0 C 265.523,656.938 229.714,675 191.648,675 v 0 z M 539.5,575 c 0,5.799 4.701,10.5 10.5,10.5 v 0 c 5.799,0 10.499,-4.701 10.499,-10.5 v 0 c 0,-5.799 -4.7,-10.5 -10.499,-10.5 v 0 c -5.799,0 -10.5,4.701 -10.5,10.5"
         transform="matrix(1.3333333,0,0,-1.3333333,0,913.33333)"
         style="fill:#f9f9f9;stroke:none" />
    </g>
  </g>
</svg>
