<?xml version="1.0" encoding="UTF-8" standalone="no"?>
<!-- Created with Inkscape (http://www.inkscape.org/) -->

<svg
   version="1.1"
   id="svg1"
   width="512"
   height="512"
   viewBox="0 0 256 256"
   sodipodi:docname="icon.svg"
   inkscape:version="1.3.1 (9b9bdc1480, 2023-11-25, custom)"
   xmlns:inkscape="http://www.inkscape.org/namespaces/inkscape"
   xmlns:sodipodi="http://sodipodi.sourceforge.net/DTD/sodipodi-0.dtd"
   xmlns="http://www.w3.org/2000/svg"
   xmlns:svg="http://www.w3.org/2000/svg">
  <defs
     id="defs1">
    <clipPath
       clipPathUnits="userSpaceOnUse"
       id="clipPath3">
      <path
         d="M 0,685 H 680 V 0 H 0 Z"
         transform="translate(-612.05051,-129.1016)"
         id="path3" />
    </clipPath>
    <linearGradient
       x1="0"
       y1="0"
       x2="1"
       y2="0"
       gradientUnits="userSpaceOnUse"
       gradientTransform="matrix(0,455.90582,455.90582,0,317.82629,219.09418)"
       spreadMethod="pad"
       id="linearGradient5">
      <stop
         style="stop-opacity:1;stop-color:#ec086d"
         offset="0"
         id="stop3" />
      <stop
         style="stop-opacity:1;stop-color:#ec086d"
         offset="0.26303688"
         id="stop4" />
      <stop
         style="stop-opacity:1;stop-color:#f466ba"
         offset="1"
         id="stop5" />
    </linearGradient>
    <clipPath
       clipPathUnits="userSpaceOnUse"
       id="clipPath3-7">
      <path
         d="M 0,685 H 680 V 0 H 0 Z"
         transform="translate(-612.05051,-129.1016)"
         id="path3-5" />
    </clipPath>
    <clipPath
       clipPathUnits="userSpaceOnUse"
       id="clipPath4">
      <rect
         style="fill:none;stroke:#ffbf31;stroke-width:1.33417;stroke-linejoin:round;stroke-dasharray:15.1181, 3.77953, 1.88976, 3.77953"
         id="rect4"
         width="263.78439"
         height="263.78439"
         x="573.19434"
         y="54.997967" />
    </clipPath>
  </defs>
  <sodipodi:namedview
     id="namedview1"
     pagecolor="#ffffff"
     bordercolor="#000000"
     borderopacity="0.25"
     inkscape:showpageshadow="2"
     inkscape:pageopacity="0.0"
     inkscape:pagecheckerboard="true"
     inkscape:deskcolor="#d1d1d1"
     inkscape:zoom="0.70710678"
     inkscape:cx="345.06811"
     inkscape:cy="294.86353"
     inkscape:window-width="1920"
     inkscape:window-height="1131"
     inkscape:window-x="0"
     inkscape:window-y="0"
     inkscape:window-maximized="1"
     inkscape:current-layer="group-MC5"
     inkscape:export-bgcolor="#ffffff00" />
  <g
     id="g1"
     inkscape:groupmode="layer"
     inkscape:label="1"
     transform="translate(-416.08523,-136.16944)">
    <g
       id="group-MC0" />
    <g
       id="group-MC1" />
    <g
       id="group-MC2" />
    <g
       id="group-MC3" />
    <g
       id="group-MC4" />
    <g
       id="group-MC6" />
    <g
       id="group-MC7" />
    <g
       id="group-MC5"
       transform="translate(40.247486,-1.1400144)">
      <rect
         style="fill:#3200a0;fill-opacity:1;stroke:none;stroke-width:0.667085;stroke-linejoin:round;stroke-dasharray:7.55905, 1.88977, 0.94488, 1.88977"
         id="rect5"
         width="256.00085"
         height="256.00983"
         x="375.83807"
         y="137.30002" />
      <path
         id="path5"
         d="m -5.5341635,11.869631 c -3.0199999,0 -5.7839995,1.7 -7.1439995,4.4 v 0 c -1.36,2.694666 -1.085334,5.926666 0.710666,8.355999 v 0 c 59.974665,81.144 387.369327,524.08799 437.470657,591.87332 v 0 c 1.51067,2.04 3.89733,3.24533 6.43467,3.24533 v 0 c 2.53733,0 4.92533,-1.20533 6.43333,-3.24533 v 0 c 45.9,-62.1 323.45066,-437.60666 378.34399,-511.87465 v 0 c 1.796,-2.42667 2.06667,-5.660005 0.70533,-8.354671 v 0 c -1.36133,-2.7 -4.12133,-4.4 -7.13866,-4.4 v 0 h -29.96667 c -18.89467,0 -37.76133,-1.361334 -56.46133,-4.078667 v 0 c -39.22133,-5.698666 -78.4,10.606667 -102,42.445328 v 0 c -35.64933,48.09467 -85.83866,115.812 -103.48,139.616 v 0 c -1.51066,2.03867 -3.896,3.23867 -6.43333,3.23733 v 0 c -2.53467,-0.003 -4.92,-1.20666 -6.428,-3.24533 v 0 C 483.81116,240.48296 411.84583,143.11363 362.80316,76.769629 v 0 c -30.168,-40.817332 -77.91333,-64.899998 -128.668,-64.899998 v 0 z M 697.93782,145.20296 c 0,-7.732 6.268,-14 14,-14 v 0 c 7.732,0 13.99866,6.268 13.99866,14 v 0 c 0,7.732 -6.26666,14 -13.99866,14 v 0 c -7.732,0 -14,-6.268 -14,-14"
         style="fill:#f00a64;fill-opacity:1;stroke:none;stroke-width:1.33333"
         clip-path="url(#clipPath4)"
         transform="translate(-197.35711,74.528281)" />
    </g>
  </g>
</svg>
